<?xml version="1.0" encoding="utf-8"?>

<!DOCTYPE svg PUBLIC "-//W3C//DTD SVG 1.1//EN" "http://www.w3.org/Graphics/SVG/1.1/DTD/svg11.dtd">
<!-- Uploaded to: SVG Repo, www.svgrepo.com, Generator: SVG Repo Mixer Tools -->
<svg height="800px" width="800px" version="1.1" id="_x32_" xmlns="http://www.w3.org/2000/svg" xmlns:xlink="http://www.w3.org/1999/xlink" 
	 viewBox="0 0 512 512"  xml:space="preserve">
<style type="text/css">
	.st0{fill:#000000;}
</style>
<g>
	<path class="st0" d="M423.658,63.034c0-12.55-10.198-22.733-22.724-22.733c-12.542,0-22.708,10.183-22.708,22.733V175.26
		c-4.59-1.123-9.488-2.182-14.644-3.241V30.895c0-12.55-10.215-22.7-22.724-22.7c-12.542,0-22.725,10.15-22.725,22.7v131.677
		c-4.897-1.075-9.778-2.093-14.627-3.038V22.701C303.505,10.207,293.323,0,280.813,0c-12.591,0-22.724,10.207-22.724,22.701v131.297
		c-5.156,0-9.956,0.444-14.628,1.188V63.487c0-12.518-10.215-22.676-22.725-22.676c-12.558,0-22.708,10.158-22.708,22.676
		c0,0-0.162,157.86-0.098,161.351c-2.618,21.958-42.168-22.466-76.837-31.889c-36.722-10.021-46.016,24.874-10.005,53.402
		C171.925,294.637,224.47,398.959,224.47,439.01V512H381.7l-2.352-62.646c0-37.238,44.31-78.615,44.31-177.918V63.034z"/>
</g>
</svg>